<svg aria-hidden="true" style="position:absolute;width:0;height:0;overflow:hidden" xmlns="http://www.w3.org/2000/svg">
    <defs>
        <!--Иконка > для кнокок -->
        <symbol id="icon-Vector" viewBox="0 0 19 32">
            <path fill="none" stroke-linejoin="round" stroke-linecap="round" stroke-width="6.4" d="M3.2 3.2 16 16 3.2 28.8"/>
        </symbol>
        <symbol id="icon-facebook1" viewBox="0 0 16 32">
        <path fill="#fff" style="fill: var(--color1, #fff)" d="M14.266 15.97h-4.176v15.39h-6.327v-15.39h-3.009v-5.409h3.009v-3.5c0-2.503 1.182-6.422 6.384-6.422l4.687 0.020v5.25h-3.401c-0.558 0-1.342 0.28-1.342 1.474v3.183h4.729l-0.553 5.403z"></path>
         </symbol>
        <symbol id="icon-telegram1" viewBox="0 0 40 32">
        <path fill="#fff" style="fill: var(--color1, #fff)" d="M16.205 20.751l-0.635 8.339c0.909 0 1.302-0.364 1.774-0.802l4.261-3.801 8.829 6.035c1.619 0.842 2.76 0.399 3.197-1.39l5.797-25.346c0.514-2.234-0.866-3.108-2.443-2.56l-34.065 12.172c-2.325 0.842-2.29 2.052-0.395 2.6l8.709 2.528 20.229-11.814c0.952-0.588 1.818-0.263 1.106 0.326l-16.364 13.713z"></path>
        </symbol>
        <symbol id="icon-github1" viewBox="0 0 32 32">
        <path fill="#fff" style="fill: var(--color1, #fff)" d="M16 0.941c-8.271 0-15.059 6.788-15.059 15.059 0 7.058 4.953 13.47 11.529 15.059v-4.982c-0.652 0.143-1.251 0.147-1.915-0.049-0.89-0.263-1.613-0.855-2.15-1.759-0.342-0.577-0.949-1.203-1.581-1.157l-0.155-1.758c1.368-0.117 2.551 0.833 3.254 2.014 0.312 0.525 0.671 0.832 1.132 0.968 0.446 0.131 0.924 0.068 1.481-0.129 0.14-1.116 0.651-1.534 1.037-2.122v-0.001c-3.922-0.585-5.486-2.666-6.106-4.308-0.822-2.181-0.381-4.905 1.073-6.627 0.028-0.034 0.079-0.121 0.060-0.183-0.667-2.014 0.146-3.679 0.176-3.856 0.769 0.228 0.894-0.229 3.342 1.258l0.423 0.254c0.177 0.105 0.121 0.045 0.298 0.032 1.022-0.278 2.099-0.431 3.16-0.445 1.069 0.014 2.14 0.167 3.204 0.456l0.137 0.014c-0.012-0.002 0.037-0.009 0.12-0.058 3.057-1.852 2.947-1.247 3.767-1.513 0.030 0.177 0.831 1.87 0.172 3.858-0.089 0.274 2.65 2.782 1.132 6.809-0.62 1.643-2.184 3.724-6.106 4.309v0.001c0.503 0.766 1.107 1.174 1.104 2.755v6.219c6.577-1.589 11.529-8.001 11.529-15.059 0-8.271-6.787-15.059-15.059-15.059v0z"></path>
        </symbol>        
        <!-- Иконка домика для слайдера -->
        <symbol id="icon-Frame-1" viewBox="0 0 32 32">
            <path d="M31.599 16.766c.58-.595.524-1.507-.125-2.037L17.173 3.056c-.649-.53-1.69-.518-2.325.025L.498 15.351c-.635.543-.667 1.454-.069 2.034l.36.35c.597.579 1.562.648 2.154.154l1.072-.896v13.116c0 .805.699 1.456 1.561 1.456h5.594c.862 0 1.561-.651 1.561-1.456v-9.176h7.135v9.176c-.012.804.604 1.455 1.466 1.455h5.928c.862 0 1.561-.651 1.561-1.456v-12.93l.662.542c.366.3 1.131.059 1.711-.536l.407-.417z"/>
        </symbol>
        <!-- Иконка кавычек для отзыва -->
        <symbol id="icon-untitled" viewBox="0 0 49 32">
            <path d="M35.781 0c2.156 0 4.191.52 6.107 1.561s3.473 2.537 4.67 4.488c1.15 1.951 1.724 4.249 1.724 6.894s-.718 5.225-2.155 7.74c-.479.911-1.341 2.081-2.587 3.512a65.965 65.965 0 0 1-3.592 3.707L35.422 32l-3.233-4.813a23.994 23.994 0 0 0 5.963-4.683c1.724-1.821 2.587-3.491 2.587-5.008 0-.78-.192-1.409-.575-1.886-1.676 1.084-3.545 1.626-5.604 1.626-1.485 0-2.898-.412-4.239-1.236-1.389-.78-2.491-1.821-3.305-3.122-.862-1.258-1.293-2.558-1.293-3.902 0-1.518.503-2.97 1.509-4.358.958-1.388 2.227-2.515 3.808-3.382C32.573.412 34.153 0 35.782 0zM9.987 0c2.155 0 4.191.52 6.107 1.561s3.473 2.537 4.67 4.488c1.15 1.951 1.724 4.249 1.724 6.894 0 1.864-.263 3.534-.79 5.008-.527 1.518-1.437 3.1-2.73 4.748-1.245 1.561-2.419 2.862-3.521 3.902-1.102 1.084-3.018 2.884-5.748 5.398l-3.233-4.813a23.994 23.994 0 0 0 5.963-4.683c1.724-1.821 2.587-3.491 2.587-5.008 0-.78-.192-1.409-.575-1.886-1.676 1.084-3.545 1.626-5.604 1.626-1.485 0-2.898-.412-4.239-1.236-1.389-.78-2.491-1.821-3.305-3.122C.431 11.619 0 10.319 0 8.975c0-1.518.479-2.97 1.437-4.358s2.227-2.515 3.808-3.382C6.778.411 8.358-.001 9.987-.001z"/>
        </symbol>
        <symbol id="icon-close_40px" viewBox="0 0 32 32">
            <path d="M23.733 10.304 22.229 8.8l-5.963 5.963L10.303 8.8l-1.504 1.504 5.963 5.963-5.963 5.963 1.504 1.504 5.963-5.963 5.963 5.963 1.504-1.504-5.963-5.963 5.963-5.963z"/>
        </symbol>
        <symbol id="icon-menu_40px" viewBox="0 0 32 32">
            <path d="M6.4 11.733V9.6h19.2v2.133H6.4zm0 5.334h19.2v-2.133H6.4v2.133zm0 5.333h19.2v-2.133H6.4V22.4z"/>
        </symbol>
        <!-- Иконка стрелочки -> для круглых кнопок -->
        <symbol id="icon-arrow-right2" viewBox="0 0 32 32">
            <path d="m19.414 27.414 10-10a2 2 0 0 0 0-2.828l-10-10a2 2 0 1 0-2.828 2.828L23.172 14H4a2 2 0 1 0 0 4h19.172l-6.586 6.586c-.39.39-.586.902-.586 1.414s.195 1.024.586 1.414a2 2 0 0 0 2.828 0z"/>
        </symbol>
    </defs>
</svg>