<svg aria-hidden="true" style="position:absolute;width:0;height:0;overflow:hidden" xmlns="http://www.w3.org/2000/svg">
    <defs>
        <!--Иконка > для кнокок -->
        <symbol id="icon-Vector" viewBox="0 0 19 32">
            <path fill="none" stroke-linejoin="round" stroke-linecap="round" stroke-width="6.4" d="M3.2 3.2 16 16 3.2 28.8"/>
        </symbol>
        <symbol id="icon-facebook" viewBox="0 0 32 32">
            <path d="M16 32c8.837 0 16-7.163 16-16S24.837 0 16 0 0 7.163 0 16s7.163 16 16 16z"/>
            <path d="M20.446 15.982h-2.61v9.619h-3.955v-9.619H12v-3.38h1.881v-2.187c0-1.564.739-4.014 3.99-4.014l2.929.012v3.281h-2.125c-.349 0-.839.175-.839.921v1.989h2.955l-.346 3.377z"/>
        </symbol>
        <symbol id="icon-telegram" viewBox="0 0 32 32">
            <path d="M32 16c0 8.837-7.163 16-16 16S0 24.837 0 16 7.163 0 16 0s16 7.163 16 16z"/>
            <path d="m12.867 18.375-.318 4.169c.454 0 .651-.182.887-.401l2.13-1.9 4.415 3.017c.81.421 1.38.199 1.599-.695l2.898-12.672.001-.001c.257-1.117-.433-1.554-1.222-1.28L6.225 14.698c-1.162.421-1.145 1.026-.198 1.3l4.355 1.264 10.115-5.907c.476-.294.909-.131.553.163l-8.182 6.857z"/>
        </symbol>
        <symbol id="icon-github" viewBox="0 0 32 32">
            <path d="M32 16c0 8.837-7.163 16-16 16S0 24.837 0 16 7.163 0 16 0s16 7.163 16 16z"/>
            <path d="M16 6.588c-5.169 0-9.412 4.242-9.412 9.412 0 4.411 3.095 8.419 7.206 9.412v-3.114a2.307 2.307 0 0 1-1.197-.03c-.556-.164-1.008-.535-1.344-1.1-.214-.361-.593-.752-.988-.723l-.097-1.099c.855-.073 1.595.521 2.034 1.259.195.328.419.52.708.605.278.082.578.043.926-.08.088-.698.407-.959.648-1.326v-.001c-2.451-.366-3.428-1.666-3.816-2.693-.514-1.363-.238-3.066.671-4.142.018-.021.05-.076.037-.114-.417-1.258.091-2.299.11-2.41.481.142.559-.143 2.089.786l.264.159c.111.066.076.028.186.02A8.031 8.031 0 0 1 16 11.131a8.016 8.016 0 0 1 2.002.285l.086.009c-.007-.001.023-.005.075-.036 1.911-1.157 1.842-.779 2.355-.946.019.111.519 1.169.107 2.411-.056.171 1.657 1.739.708 4.256-.388 1.027-1.365 2.328-3.816 2.693v.001c.314.479.692.734.69 1.722v3.887c4.111-.993 7.206-5 7.206-9.412 0-5.169-4.242-9.412-9.412-9.412z"/>
        </symbol>
        <!-- Иконка домика для слайдера -->
        <symbol id="icon-Frame-1" viewBox="0 0 32 32">
            <path d="M31.599 16.766c.58-.595.524-1.507-.125-2.037L17.173 3.056c-.649-.53-1.69-.518-2.325.025L.498 15.351c-.635.543-.667 1.454-.069 2.034l.36.35c.597.579 1.562.648 2.154.154l1.072-.896v13.116c0 .805.699 1.456 1.561 1.456h5.594c.862 0 1.561-.651 1.561-1.456v-9.176h7.135v9.176c-.012.804.604 1.455 1.466 1.455h5.928c.862 0 1.561-.651 1.561-1.456v-12.93l.662.542c.366.3 1.131.059 1.711-.536l.407-.417z"/>
        </symbol>
        <!-- Иконка кавычек для отзыва -->
        <symbol id="icon-untitled" viewBox="0 0 49 32">
            <path d="M35.781 0c2.156 0 4.191.52 6.107 1.561s3.473 2.537 4.67 4.488c1.15 1.951 1.724 4.249 1.724 6.894s-.718 5.225-2.155 7.74c-.479.911-1.341 2.081-2.587 3.512a65.965 65.965 0 0 1-3.592 3.707L35.422 32l-3.233-4.813a23.994 23.994 0 0 0 5.963-4.683c1.724-1.821 2.587-3.491 2.587-5.008 0-.78-.192-1.409-.575-1.886-1.676 1.084-3.545 1.626-5.604 1.626-1.485 0-2.898-.412-4.239-1.236-1.389-.78-2.491-1.821-3.305-3.122-.862-1.258-1.293-2.558-1.293-3.902 0-1.518.503-2.97 1.509-4.358.958-1.388 2.227-2.515 3.808-3.382C32.573.412 34.153 0 35.782 0zM9.987 0c2.155 0 4.191.52 6.107 1.561s3.473 2.537 4.67 4.488c1.15 1.951 1.724 4.249 1.724 6.894 0 1.864-.263 3.534-.79 5.008-.527 1.518-1.437 3.1-2.73 4.748-1.245 1.561-2.419 2.862-3.521 3.902-1.102 1.084-3.018 2.884-5.748 5.398l-3.233-4.813a23.994 23.994 0 0 0 5.963-4.683c1.724-1.821 2.587-3.491 2.587-5.008 0-.78-.192-1.409-.575-1.886-1.676 1.084-3.545 1.626-5.604 1.626-1.485 0-2.898-.412-4.239-1.236-1.389-.78-2.491-1.821-3.305-3.122C.431 11.619 0 10.319 0 8.975c0-1.518.479-2.97 1.437-4.358s2.227-2.515 3.808-3.382C6.778.411 8.358-.001 9.987-.001z"/>
        </symbol>
        <symbol id="icon-close_40px" viewBox="0 0 32 32">
            <path d="M23.733 10.304 22.229 8.8l-5.963 5.963L10.303 8.8l-1.504 1.504 5.963 5.963-5.963 5.963 1.504 1.504 5.963-5.963 5.963 5.963 1.504-1.504-5.963-5.963 5.963-5.963z"/>
        </symbol>
        <symbol id="icon-menu_40px" viewBox="0 0 32 32">
            <path d="M6.4 11.733V9.6h19.2v2.133H6.4zm0 5.334h19.2v-2.133H6.4v2.133zm0 5.333h19.2v-2.133H6.4V22.4z"/>
        </symbol>
        <!-- Иконка стрелочки -> для круглых кнопок -->
        <symbol id="icon-arrow-right2" viewBox="0 0 32 32">
            <path d="m19.414 27.414 10-10a2 2 0 0 0 0-2.828l-10-10a2 2 0 1 0-2.828 2.828L23.172 14H4a2 2 0 1 0 0 4h19.172l-6.586 6.586c-.39.39-.586.902-.586 1.414s.195 1.024.586 1.414a2 2 0 0 0 2.828 0z"/>
        </symbol>
    </defs>
</svg>